# xmcd
#
# Track frame offsets:
#	150
#	16436
#	37513
#
# Disc length: 938 seconds
# Revision: 0
# Processed by: cddbd v1.5.2PL0 Copyright (c) Steve Scherf et al.
# Submitted via: dBpowerAMP V12.0
#
DISCID=1303a803
DTITLE=Taka Boom - Night Dancin' (Single)
DYEAR=1979
DGENRE=Disco
TTITLE0=Night Dancin' (Single Version)
TTITLE1=Cloud Dancer
TTITLE2=Night Dancin' (Album Version)
EXTD=
EXTT0=
EXTT1=
EXTT2=
PLAYORDER=
